# xmcd
# Copyright (C) 1995-1998 Ti Kan
#
# Track frame offsets:
#       150
#       16170
#       30868
#       46649
#       63388
#       78743
#
# Disc length: 1214 seconds
#
# Revision: 0
# Processed by: cddbd v1.5.1PL2 Copyright (c) Steve Scherf et al.
# Submitted via: CD-Transfer v1.0
#
DISCID=3804bc06
DTITLE=Franz Berger - 
DYEAR=1900
DGENRE=
TTITLE0=Hey Du Bäurin
TTITLE1=Nigel Nagel Noi
TTITLE2=Koasa
TTITLE3=James Bond Vom Land
TTITLE4=Halt Aus Bauer
TTITLE5=Jodler Loder
EXTD=
EXTT0=
EXTT1=
EXTT2=
EXTT3=
EXTT4=
EXTT5=
PLAYORDER=
